<?xml version="1.0" encoding="iso-8859-1"?>
<!-- Uploaded to: SVG Repo, www.svgrepo.com, Generator: SVG Repo Mixer Tools -->
<svg version="1.1" id="Layer_1" xmlns="http://www.w3.org/2000/svg" xmlns:xlink="http://www.w3.org/1999/xlink" 
	 viewBox="0 0 512.001 512.001" xml:space="preserve">
<path style="fill:#B1DB92;" d="M350.183,26.598H165.297c-33.379,0-60.438,27.059-60.438,60.438l0,0
	c0,33.484,27.144,60.627,60.627,60.627l0,0c34.219,0,61.96,27.74,61.96,61.96v83.089h57.106v-83.089
	c0-34.219,27.74-61.96,61.96-61.96h3.668c33.441,0,60.551-27.282,60.551-60.723v0.104C410.733,53.603,383.624,26.598,350.183,26.598
	z"/>
<path style="fill:#FFDB6C;" d="M350.326,476.689H161.677c-33.363,0-60.408-27.045-60.408-60.408V291.638
	c0-5.714,4.632-10.346,10.346-10.346h288.77c5.714,0,10.346,4.632,10.346,10.346v124.643
	C410.733,449.644,383.687,476.689,350.326,476.689z"/>
<path style="fill:#FFB04C;" d="M400.386,281.291h-43.401c5.714,0,10.346,4.632,10.346,10.346v124.643
	c0,33.363-27.045,60.408-60.408,60.408h43.401c33.363,0,60.408-27.045,60.408-60.408V291.638
	C410.733,285.924,406.1,281.291,400.386,281.291z"/>
<path style="fill:#FA6657;" d="M315.646,476.689h-119.29c-14.513,0-26.279,11.765-26.279,26.279v3.408
	c0,3.107,2.518,5.625,5.625,5.625H336.3c3.107,0,5.625-2.518,5.625-5.625v-3.408C341.925,488.454,330.159,476.689,315.646,476.689z"
	/>
<path style="fill:#F44A46;" d="M315.646,476.689h-22.842c14.513,0,26.279,11.765,26.279,26.279v9.033H336.3
	c3.107,0,5.625-2.518,5.625-5.625v-3.408C341.925,488.454,330.159,476.689,315.646,476.689z"/>
<g>
	<rect x="101.273" y="315.557" style="fill:#6EAECD;" width="309.458" height="34.264"/>
	<rect x="101.273" y="384.085" style="fill:#6EAECD;" width="309.458" height="34.264"/>
</g>
<g>
	<rect x="367.331" y="315.557" style="fill:#5388B4;" width="43.401" height="34.264"/>
	<path style="fill:#5388B4;" d="M367.332,416.281c0,0.692-0.029,1.379-0.053,2.065h43.401c0.023-0.686,0.053-1.373,0.053-2.065
		v-32.199h-43.401V416.281z"/>
</g>
<path style="fill:#EE3446;" d="M256.001,156.8c-4.731,0-8.566-3.835-8.566-8.566v-41.397c0-4.731,3.835-8.566,8.566-8.566
	c4.732,0,8.566,3.835,8.566,8.566v41.397C264.567,152.965,260.732,156.8,256.001,156.8z"/>
<path style="fill:#81A84E;" d="M256.001,112.547L256.001,112.547c5.226,0,9.931-3.135,11.973-7.946
	c11.614-27.348,31.049-50.478,55.489-66.585c8.409-5.543,7.623-18.082-1.404-22.551C302.139,5.599,279.715,0,256.001,0
	c-23.72,0-46.149,5.641-66.074,15.532c-9.019,4.477-9.799,17.013-1.389,22.55c24.44,16.09,43.875,39.179,55.489,66.521
	C246.072,109.412,250.775,112.547,256.001,112.547z"/>
<g>
	<circle style="fill:#303E48;" cx="221.733" cy="35.737" r="5.996"/>
	<circle style="fill:#303E48;" cx="286.605" cy="35.737" r="5.996"/>
</g>
<g>
	<rect x="227.444" y="271.357" style="fill:#8ACC6E;" width="57.106" height="9.94"/>
	<rect x="227.444" y="248.515" style="fill:#8ACC6E;" width="57.106" height="9.94"/>
	<rect x="227.444" y="225.672" style="fill:#8ACC6E;" width="57.106" height="9.94"/>
	<rect x="227.444" y="204.543" style="fill:#8ACC6E;" width="57.106" height="9.94"/>
</g>
<circle cx="221.733" cy="35.737" r="5.996"/>
<circle cx="286.605" cy="35.737" r="5.996"/>
</svg>